<svg width="25" height="25" xmlns="http://www.w3.org/2000/svg">
 <!-- Created with UXWing SVG Editor - https://uxwing.com/svg-icon-editor/ -->
 <g>
  <title>background</title>
  <rect fill="none" id="canvas_background" height="27" width="27" y="-1" x="-1"/>
 </g>
 <g>
  <title>Layer 1</title>
  <path stroke="#ffffff" id="svg_2" d="m238.644822,135.388934c-68.483714,0 -123.999993,51.041292 -123.999993,114.001945c0,21.515481 6.563184,41.615074 17.856602,58.777874l-17.856602,47.989166l49.714878,-15.647112c20.716766,14.300698 46.385041,22.878101 74.285114,22.878101c68.483785,0 124.000028,-51.041346 124.000028,-113.99804c0,-62.960643 -55.516234,-114.001945 -124.000028,-114.001945l0,0.000011z" stroke-width="5" fill="none"/>
  <ellipse ry="12" rx="11.5" id="svg_3" cy="249.388913" cx="196" stroke-width="5" fill="#ffffff"/>
  <ellipse ry="12" rx="11.5" id="svg_4" cy="249.388913" cx="243" stroke-width="5" fill="#ffffff"/>
  <ellipse ry="12" rx="11.5" id="svg_5" cy="249.388913" cx="288" stroke-width="5" fill="#ffffff"/>
  <path stroke="#ffffff" id="svg_9" d="m12.499999,1.124994c-6.368574,0 -11.531255,5.092939 -11.531255,11.375201c0,2.146831 0.610337,4.152384 1.660557,5.864901l-1.660557,4.788396l4.623185,-1.561281c1.926535,1.426935 4.31353,2.282794 6.90807,2.282794c6.368581,0 11.531258,-5.092945 11.531258,-11.374812c0,-6.282261 -5.162677,-11.375201 -11.531258,-11.375201l0,0.000001z" fill="none"/>
  <ellipse ry="0.656251" rx="0.65625" id="svg_10" cy="12.5" cx="8.124997" fill="#ffffff"/>
  <ellipse ry="0.656251" rx="0.65625" id="svg_11" cy="12.5" cx="16.843746" fill="#ffffff"/>
  <ellipse ry="0.656251" rx="0.65625" id="svg_12" cy="12.5" cx="12.5" fill="#ffffff"/>
 </g>
</svg>