<?xml version="1.0" standalone="no"?>
<!DOCTYPE svg PUBLIC "-//W3C//DTD SVG 20010904//EN"
 "http://www.w3.org/TR/2001/REC-SVG-20010904/DTD/svg10.dtd">
<svg version="1.0" xmlns="http://www.w3.org/2000/svg"
 width="512.000000pt" height="512.000000pt" viewBox="0 0 512.000000 512.000000"
 preserveAspectRatio="xMidYMid meet">
<metadata>
Created by potrace 1.16, written by Peter Selinger 2001-2019
</metadata>
<g transform="translate(0.000000,512.000000) scale(0.100000,-0.100000)"
fill="#000000" stroke="none">
<path d="M3993 5066 c-156 -30 -302 -96 -420 -192 -125 -100 -1821 -1806
-1890 -1900 -119 -162 -206 -369 -237 -567 -20 -123 -23 -786 -4 -849 16 -55
89 -133 142 -153 38 -15 90 -16 452 -12 405 3 410 4 512 30 194 50 347 125
497 243 112 87 1872 1854 1917 1924 56 87 96 172 125 267 25 82 27 101 27 268
0 167 -2 186 -27 268 -102 330 -345 568 -672 657 -102 28 -316 36 -422 16z
m292 -508 c210 -52 358 -280 324 -498 -18 -119 -53 -175 -203 -327 l-135 -138
-318 318 -318 318 134 131 c111 108 146 136 207 165 106 50 195 59 309 31z
m-937 -1886 c-310 -310 -592 -586 -628 -614 -81 -62 -184 -112 -286 -139 -63
-17 -121 -22 -291 -26 l-213 -6 0 136 c0 311 41 477 158 642 20 28 295 310
611 628 l576 577 317 -317 318 -318 -562 -563z"/>
<path d="M585 4755 c-154 -34 -252 -90 -370 -209 -104 -104 -161 -205 -195
-340 -20 -77 -20 -116 -20 -1801 0 -1685 0 -1724 20 -1801 56 -223 229 -424
437 -509 141 -57 85 -55 1658 -55 1635 0 1525 -5 1700 80 205 99 354 288 401
509 17 83 20 963 3 1025 -13 48 -82 123 -134 147 -53 25 -156 25 -210 0 -46
-21 -98 -69 -123 -115 -15 -28 -18 -81 -22 -491 -5 -458 -5 -460 -28 -505 -33
-63 -59 -89 -117 -116 l-50 -24 -1423 0 c-1185 0 -1428 2 -1456 14 -50 21
-107 76 -130 126 -21 45 -21 47 -24 1694 -3 1839 -7 1717 66 1798 20 23 57 51
82 62 44 21 60 21 835 26 876 6 814 1 885 72 49 48 70 102 70 178 0 76 -21
130 -71 179 -74 75 -20 71 -919 70 -635 0 -818 -3 -865 -14z"/>
</g>
</svg>
