<svg id="Layer_1" data-name="Layer 1" xmlns="http://www.w3.org/2000/svg" viewBox="0 0 512 512"><defs><style>.cls-1{fill:#141f38;}</style></defs><title>shop-glyph</title><path class="cls-1" d="M499.2,486.4H473.6V236.29A51.14,51.14,0,0,0,499.2,192V32a32,32,0,0,0-32-32H44.8a32,32,0,0,0-32,32V192a51.14,51.14,0,0,0,25.6,44.29V486.4H12.8a12.8,12.8,0,0,0,0,25.6H499.2a12.8,12.8,0,0,0,0-25.6Zm-25.6-320H422.4V76.8h51.2ZM38.4,76.8H89.6v89.6H38.4ZM64,217.6A25.63,25.63,0,0,1,38.4,192H89.6A25.63,25.63,0,0,1,64,217.6ZM192,396.8H179.2a12.8,12.8,0,1,1,0-25.6H192a12.8,12.8,0,0,1,0,25.6Zm51.2,89.6H217.6V300.8a6.41,6.41,0,0,0-6.4-6.4H121.6a6.41,6.41,0,0,0-6.4,6.4V486.4H89.6V300.8a32,32,0,0,1,32-32h89.6a32,32,0,0,1,32,32ZM166.4,192a25.6,25.6,0,0,1-51.2,0Zm-51.2-25.6V76.8h51.2v89.6Zm102.4,51.2a25.46,25.46,0,0,1-10-2A25.67,25.67,0,0,1,192,192h51.2A25.63,25.63,0,0,1,217.6,217.6Zm25.6-51.2H192V76.8h51.2ZM192,51.2H38.4V32a6.41,6.41,0,0,1,6.4-6.4H467.2a6.41,6.41,0,0,1,6.4,6.4V51.2H192ZM345.6,166.4V76.8h51.2v89.6ZM396.8,192a25.6,25.6,0,0,1-51.2,0Zm-128-25.6V76.8H320v89.6ZM320,192a25.6,25.6,0,0,1-51.2,0ZM422.4,364.8a32,32,0,0,1-32,32H300.8a32,32,0,0,1-32-32v-64a32,32,0,0,1,32-32h89.6a32,32,0,0,1,32,32ZM448,217.6a25.46,25.46,0,0,1-10-2A25.67,25.67,0,0,1,422.4,192h51.2A25.63,25.63,0,0,1,448,217.6Zm-57.6,76.8H300.8a6.41,6.41,0,0,0-6.4,6.4v64a6.41,6.41,0,0,0,6.4,6.4h89.6a6.41,6.41,0,0,0,6.4-6.4v-64A6.41,6.41,0,0,0,390.4,294.4Z"/></svg>