<?xml version="1.0" standalone="no"?>
<!DOCTYPE svg PUBLIC "-//W3C//DTD SVG 20010904//EN"
 "http://www.w3.org/TR/2001/REC-SVG-20010904/DTD/svg10.dtd">
<svg version="1.0" xmlns="http://www.w3.org/2000/svg"
 width="512.000000pt" height="512.000000pt" viewBox="0 0 512.000000 512.000000"
 preserveAspectRatio="xMidYMid meet">
<metadata>
Created by potrace 1.16, written by Peter Selinger 2001-2019
</metadata>
<g transform="translate(0.000000,512.000000) scale(0.100000,-0.100000)"
fill="#000000" stroke="none">
<path d="M93 5094 c-24 -14 -54 -44 -68 -68 l-25 -43 0 -1042 c0 -1014 1
-1043 20 -1080 24 -48 70 -87 118 -101 54 -14 2033 -14 2087 1 52 15 119 82
134 134 15 54 15 2033 1 2087 -14 48 -53 94 -101 118 -37 19 -66 20 -1081 20
l-1043 0 -42 -26z m1867 -1154 l0 -780 -780 0 -780 0 0 780 0 780 780 0 780 0
0 -780z"/>
<path d="M2859 5100 c-47 -25 -86 -71 -99 -118 -14 -54 -14 -2033 1 -2087 15
-53 82 -120 136 -134 30 -8 333 -11 1065 -9 1003 3 1024 3 1057 23 19 11 48
37 65 58 l31 39 3 1055 2 1056 -25 43 c-15 26 -43 54 -69 69 l-43 25 -1044 0
c-1009 -1 -1045 -2 -1080 -20z m1861 -1160 l0 -780 -780 0 -780 0 0 780 0 780
780 0 780 0 0 -780z"/>
<path d="M127 2355 c-48 -16 -83 -48 -108 -97 -18 -36 -19 -75 -19 -1079 l0
-1042 25 -43 c15 -26 43 -54 69 -69 l43 -25 1056 2 1055 3 39 31 c21 17 47 46
58 65 20 33 20 54 23 1057 2 732 -1 1035 -9 1065 -14 54 -81 121 -134 136 -28
8 -340 11 -1050 11 -829 -1 -1017 -3 -1048 -15z m1833 -1175 l0 -780 -780 0
-780 0 0 780 0 780 780 0 780 0 0 -780z"/>
<path d="M3880 2359 c-52 -16 -100 -56 -121 -103 -17 -38 -19 -72 -19 -458 l0
-418 -417 0 c-387 0 -421 -2 -459 -19 -50 -23 -88 -71 -104 -130 -21 -81 12
-169 83 -218 l40 -28 428 -3 428 -3 3 -428 3 -428 29 -41 c36 -52 96 -82 164
-82 88 0 147 37 183 115 17 37 19 72 19 453 l0 412 413 0 c462 0 460 0 524 73
79 90 47 254 -59 306 -43 20 -57 21 -461 21 l-416 0 -3 428 -3 429 -28 40
c-49 71 -146 106 -227 82z"/>
</g>
</svg>
